
<?xml version="1.0" encoding="UTF-8" standalone="no"?>
<!DOCTYPE svg PUBLIC "-//W3C//DTD SVG 1.1//EN" "http://www.w3.org/Graphics/SVG/1.1/DTD/svg11.dtd">
<svg xmlns="http://www.w3.org/2000/svg" version="1.1" xmlns:xlink="http://www.w3.org/1999/xlink" width="650px" height="3030.0px">
<style>text {font-family:PingFangSC-Regular, Microsoft YaHei, 'Hiragino Sans GB', Helvetica; ;font-size:14px;fill:#333;}</style>
	<text x="0" y="37">兽辛嫁英灌甜减富管拔榆纪锯懂若葛恩忘好师款绞秘撕优棍丙具雪过皮涛药锋仿落狠缴使雾课哑</text>
	<text x="0" y="70">瘦滋守棋睁西贩麻陡参牲猴啊劫猎竞召帽授浅相饼偷有袋司哲凯倡谣惜批呈屑究完城眠猪吴部市</text>
	<text x="0" y="115">坦股禾府企姓喉蜻靠帘勉东才筹成贷留废手届普许悟舞纯凉欠检狮烧告纲碰烘甚粗阶冒奔污洪厕</text>
	<text x="0" y="158">勺士倒答侦全限芬架岔音再顾潜跃啦层馆急辣妙边捷染闻帝条缠嗽如某色察幸伤宏难诵并愿竖闯</text>
	<text x="0" y="191">块争鼓吗龙哭皱凶歼率芹肺你纠香号沃主较效圾冠母穴史九现新安拾套旬偏橡勇稳签铸式复肝旁</text>
	<text x="0" y="228">搂兆商悠围枝想攻妹绳纽恒掀圣浊岭呜抄考适及突筒景搬荡碗馒租浆善币组唇赚谱六肩迫稻陆财</text>
	<text x="0" y="275">理析怜伯牌疯貌步蓬奴暴器环社聋伸累疑扶观逝扰询拜诞炊恳荐汽拥默劝喷词箩希匪拨笑著势岸</text>
	<text x="0" y="316">庆政低但协来土广捧是葬琴彼育爽果隆失堪旱者鸣花僵呆狂哈恶昏换谨引郊趁煤荒什作侍火娃带</text>
	<text x="0" y="362">挨渠惰蚕酒稠拌桐待旷犹贼扛怎溪孤不嗓摘辉案摄拢警颠墨驶钳挤虑居帮飘狐缓棕耳族伍柴悲喝</text>
	<text x="0" y="401">介械辩糟欣箱垄象蔑联误一良亩程挪抚邻入出忆冷偶进码宝杏割菠损健融掏宪题试蒙差论捎硬戴</text>
	<text x="0" y="451">身栽托昌七物畜繁裤杰岗涂叠杨咏治镰购销矩要颈坟紫同胆仓趋赶撞洒创喜歌长轨颜第取肚夺谎</text>
	<text x="0" y="495">工押四棵冻驼禁趣樱革值池腥芒陶海另客黄眼滑常脊垒派惠认强除区泳念阻业椅晕蒸暂审眉倍少</text>
	<text x="0" y="531">央光摸编塌赏抓羊败连箭委次涌疏锄残昨易碌叫保餐举掘冈劣袄宽劲皆剂应愚墙吼深浴片宜直满</text>
	<text x="0" y="563">陕之轰灰邪悦校冤已霞舰沸儿贡练颂化阳法鸽朴磁泊垂驴廊叙鸭拒呢缝贺债病坚江帖局桂艺植耍</text>
	<text x="0" y="599">近柱寒规卖怪吨谦寨翁吐雀捞本滤产山闭选板衬悉晶高笨能雨扬形筑贯堆寻屡巧洽求骑寺滨奉蛮</text>
	<text x="0" y="648">就崇馋芝避殿辫墓几会裳升血陈接纸院舒尝廉回溜握绢妈名卜通泻稍力岛足鬼又沫把蛾尤做酷折</text>
	<text x="0" y="689">种盾角肃诸自剑野饺艇示拘闸水疤壮排岂书肿斑乃糕乡钢熔弟堡嘱抢屯德抖俊卸沉越笋懒松立朵</text>
	<text x="0" y="736">膛狗估柿冶焰先咐始苦度绍缸事玩斥让扣期芳金昼青毅得叼桌材剃以汪员壁决铺衔椒牵益旋峰赢</text>
	<text x="0" y="776">姻佛君太登分堵变液戒百傲女豆弊酸饶咬婚世茂平蚀前冬跨探犁虚类尿妨项团设谁呀搜吩煌章拉</text>
	<text x="0" y="823">盛魔俯藏鼻置苏蛛仙打星福遮畏虫舍座露伞胖见赛绒冰骗坊狸衣删席晌秤阅暖养厘倦去循障塑简</text>
	<text x="0" y="861">疗娘贵扯返跑刚乓穿骄离险颤便死吹扮马敬润护食腊歪酿必乒面淹怨坐亲货茫战载叛朗航斩铜遣</text>
	<text x="0" y="898">震竟五凳故微膨洁根圆孙鸦璃膊素页搏讽父轻乎统皂训呼捕殊辅耽利锐丝刃壳渣巷给螺艳泪昆悬</text>
	<text x="0" y="929">沈厅脆散杜跪兵等际装鞠用扒亡躲蔽谢勒稿下烈翼泼拖狡实独诚辆魄约蝴丁殖覆讨蜂薪傻旨疾戚</text>
	<text x="0" y="976">肯开泄乌逢诱运增缎龄厦竹虾中例轮三斗其久御醒粒灶推蓝丈贪缺绵刷祖孩筛羞扇珍慧供弱剧怖</text>
	<text x="0" y="1011">南恋芦策借挥胀脾她堤须毁困嫩非柏读白撑冲辟扑右锻奖惕交格公辰州伙扁害洋截私级奏建责功</text>
	<text x="0" y="1049">宰软栋木隶熟宿整秃亭附践验启粘忌释炕荣魂蒜霜唐晨济肌态向展永聪渐氏候乘袜起鲁刘零泽猛</text>
	<text x="0" y="1085">问肠农混爬促茅赤苗超爷贞侧李鸟杠丧拴赴秒携蹈骡渴帜朋务缩两钟娱且精贤仇婶休逮售逃场归</text>
	<text x="0" y="1121">穗畅辞属更虏桨存饰义轿阿揉八削浓蝶雄余姿膜捐沿贸忽乱闹礼耕丢营枪楚克谷蜘敢解牙车焦降</text>
	<text x="0" y="1168">怠医侮那漏达滩专只邮烦氧茶夜比羽宴职闪共醋宁脉找凡胜享命传点淋贱娇翅夹惨韵鼠蛙齿库耗</text>
	<text x="0" y="1217">乞炸支否赞沙诉贫恨敞炉骆民锦撒汗亿毒矿柔丰脑脂胡崭学模趟话当喇方抛买生季虎所秆监挠丸</text>
	<text x="0" y="1266">访台凑填爪坑鞋织捆括扭布状眯阴紧吃庙逐梳坡纺票敲暮欢搞递疼略影稼雹灿地辜息尸喊衡击鄙</text>
	<text x="0" y="1316">触北砖膝净弄持细译够树盐葡重誉蝇索苹炼路丽匹游储酬涨唉瓦博荷辱川橘脸灵思怒掩错弃算忍</text>
	<text x="0" y="1351">慎炮胞弯他挑疲葱裂宙卷播坏猜银科蠢插链绕阵获枕党湾也览册抬烂意油咱圈秧版表队驰空黑嘴</text>
	<text x="0" y="1386">还睛捉末首绩费踏援枣恐搭戏漆役宣假尘知指洲晴竿罐瞎样户盘拍群凤美眨奋浩肆未似绘鉴玻谜</text>
	<text x="0" y="1425">节暗尊隙彻鱼极梢裙絮晃封狼绪在续别滚钩涉曲胶匆径祥朱代尾控绝肤飞领罢姜毫睬帆牢鹊份内</text>
	<text x="0" y="1471">语赠塞糖欺由钻尼横锈毯杀子间疆衫敏霉退量们放乖肢温些霸迟碧胳于茎漠撤厉底诗怀爱糊显菊</text>
	<text x="0" y="1516">烛桃梯午基老杯笔楼舟容室集盈钓催顿恭纵字慕亏慌碍从鹅替惯收袍姥穷照承腾吊依腰谊系妻叔</text>
	<text x="0" y="1549">倘料补县仍饲将碎危蕉招哨迁斯文固僻加栗舱施垮天甲蹦痰盼跟舅奶斧罩技段宗惧家喘遭订忧碑</text>
	<text x="0" y="1597">动伟拦罚踢粪竭厂鸡激皇苍仁口捏掌矮句继权兄里处则努道停晒国小狱锹防莫听清和饮十神孕钱</text>
	<text x="0" y="1628">臭汉行脖浙膀饿臣井纱缘佩幕唯勤灾臂制叶拿帅为刊哄刀夕幻涝昂腐萝件喂肉斜救俱瞒朝甘瞧后</text>
	<text x="0" y="1661">旧粉违机盲站剪阁挖申姐烫裹牛跳街绸柜怕积柳每感惭付虹无屈磨总疮担秩滴裁棚饥习劳燃标恼</text>
	<text x="0" y="1706">丑庸振蹄倚滔俘声叨唤骂税乔森官窃这摊渡洗测胃佳剖额挡逗嫌砍看敌压妥往沾猾友干尽瑞澡吸</text>
	<text x="0" y="1741">盗乏纤元序屋请醉泛洞般绑草柄构雁辽烟您质康密充透糠雷睡犯或添揭篮床顽瓶园剥至玉吉范真</text>
	<text x="0" y="1772">巩迅调致绿均着珠炒胸萍恢临信毛仔诊赔侨最刺称蚊蜓结典奇羡鹰轧止注志查贴稀办佣人咸俭踪</text>
	<text x="0" y="1812">谅可延铃关邀愉令伐刻月热膏梦陪卵灭时耐议熄蓄漂窝巾房春了翻输旅卧叮犬寿抵上笛识献仗伏</text>
	<text x="0" y="1853">按摔谋红趴欲偿堂挎剩蚂傍匀煮哥浸奸沟巨军域钞旺撇搁兴窜朽快汤叹熊络袖价港翠述嫂心忠愧</text>
	<text x="0" y="1896">摩单杆奥盆操慨驱浇需受菌蜜梁顷视迎灯划励转智王品消破株造踩幅渔射培核津炭针严住厌隔颗</text>
	<text x="0" y="1944">脚吵风勿董记侄婆峡帐腹石既演枯嚷端目劈槐狭弹映锤彩禽骤番煎线脏侵万像铅妇言惑舌郎厚盒</text>
	<text x="0" y="1992">垫叉速准夫垃术己泰投驾窑籍盖寇对甩僚占框味崖孔择界店境裕腿门泉刮莲薯允逆写俩窄寄篇躬</text>
	<text x="0" y="2029">童摆此症渗爸没船陵计咽修哀仆聚讯岁俗祸躁凝改半菜头走河研蛋束誓梅丛性日浪旗贝愈图抽说</text>
	<text x="0" y="2062">饭录抱龟躺背盟郑兼豪窗经尺挺卫擦途提仅报威罗教咳巡含桥衰披与卡嘉耻暑砌浑体辈预华个掉</text>
	<text x="0" y="2110">吞赖省挽栏乙雕众免筝望双秋而弦活埋球腔茧绣庭各闷鹿律终型慢鞭尖础瓣阔断米酱痒么移扫云</text>
	<text x="0" y="2149">短该送二槽旦徒流征阀浮伴扩塔痕锁屿寸田网欧详督切疫鲜胁何刑觉坛波黎惹仰乳棉秀薄镜捡筋</text>
	<text x="0" y="2187">搅拆吧助副据券倾被盏壶赵抹讲揪追顶赌猫京电矛早串孝蜡蛇符列迈漫亦垦遗歉纹艘武张描粱瓜</text>
	<text x="0" y="2228">判罪闲概迷拼巴湖驻妖然多顺互特牧驳明证晋筐匙遇攀夏哗任予艰挣雅爹大掠导蹲到齐淘丘燥笼</text>
	<text x="0" y="2273">静摇忙肾宫响徐兰伪泥滥宅发榴葵负塘曾纷厨遍画男溉锅萌牺愁今囊纳包亮评毕林尚惩配匠挂址</text>
	<text x="0" y="2308">确古杂年铁惊服泡采档饱扎谈初合壤炎斤钉随都勾键很悔逼毙燕摧袭痛迹悼我历馅数陷榜晚乐汁</text>
	<text x="0" y="2340">祝况夸慰芽拳兔位晓资岩反梨粮却患外棒悄脱左抗坝唱它傅遥扔凭孟仪嚼班原潮烤丹妄盯蚁异愤</text>
	<text x="0" y="2372">亚源虽正伶榨周恰耀桑蔬定歇拣辨锡肥因锣姨桶湿麦距淡执隐茄啄宵庄宾铲跌哪气骨宇远村爆贿</text>
	<text x="0" y="2416">屠的宋殃粥吓遵汇萄拐镇千即弓情幼钥慈备姑维</text>
</svg>