
<?xml version="1.0" encoding="UTF-8" standalone="no"?>
<!DOCTYPE svg PUBLIC "-//W3C//DTD SVG 1.1//EN" "http://www.w3.org/Graphics/SVG/1.1/DTD/svg11.dtd">
<svg xmlns="http://www.w3.org/2000/svg" version="1.1" xmlns:xlink="http://www.w3.org/1999/xlink" width="650px" height="3030.0px">
<style>text {font-family:PingFangSC-Regular, Microsoft YaHei, 'Hiragino Sans GB', Helvetica; ;font-size:14px;fill:#333;}</style>
	<text x="0" y="42">柏绘逐搭瑞稠旧缠刻歇促梢栏陕赵宇许蜻培圈邮酒授刑辜脑济软谢奴哄愧蕉严翼秩拥姜贸暂跃聚</text>
	<text x="0" y="74">届筒泡辫父积耻妻添住邪航辈仪上槐再龟店泄艰务察浇拖潮俱日辞稀两疲包榴口耗驱儿肢鼓优权</text>
	<text x="0" y="118">姓誉融孤享那镜于寄屈崖永联茶也岛剪汗畅屯碎唤饮缴接奸钱词贺迅令宋假赶忽己按岸掩符禾洋</text>
	<text x="0" y="155">宅爽连朽替累曾雄乱速粉旺针拢尼太够声础山墙留仰田输旱制著腔撒冶个昂盒血裕饱平帜沈率丸</text>
	<text x="0" y="204">买晃茅后拨啄侵拌幼汪看楼膀盼驾搞扯乒查丧牙尽谅蹲谱办敏浪端逗鹊典胜往共螺慰狗打吉胶鸣</text>
	<text x="0" y="235">楚朗际堪鱼理驻特豆筋将违设发版箱欣订灭哭咱洲执卵籍蒜狂运缸望科范盏千丑愚斯章战双中谊</text>
	<text x="0" y="278">如慧挂约决神其毙暴副乌捡缺塔调庙稻乏笑暖舟薄面叨访倍先劲诉赴肺屡升纳壮艺倾加赏栽劈寿</text>
	<text x="0" y="324">定扑桌顷勇振者塌框题遭损细蚂奋涌食炒鞠嘱阶蔽迈询桐踩们搬汤效照购瘦吞惭就萝倒糟万铸雁</text>
	<text x="0" y="370">短沫戒性冷浅物纵挪布答泛慌复杰集欲早赢护虎痒独耐灌历吐厅毒或嚼葛托崭冒挠嫁影获大戏饰</text>
	<text x="0" y="405">舞暗人份敞烫免返韵海认厌圣哈一路小功少狮变世像魂胃抵砍二谁尺掘弃滑吓棕淘宿朱略它伸送</text>
	<text x="0" y="449">迎戴披绞旦抚茄吨恐岗炕敌光府密袜瓣拣摘寸捧择五街淋冠暑薪辛捆孔西膜简外腾吼吹红校凡丝</text>
	<text x="0" y="492">陪筐专贿支礼适云把怎灾幕渣谨碧裂斧颗号狱皆袭给霜臣是审部类玻居并焦嫩道广诵挤葱非女户</text>
	<text x="0" y="536">慈洗胞祖时仅尘苗雷境钟浑末拍拘舱冲播减空室找客枯条谋断佣莲堡嫌坐揭基祥附皂馒派贯盐顺</text>
	<text x="0" y="584">岁步乘增爪穷交净钉辣相军闪盛喂盯焰铅裙料繁果旗巨家嘉占绵狐讲嚷则颠坊兄膛自僵何朋络勺</text>
	<text x="0" y="629">萄倘坑幸郊鸦塞苹主棉篇希敢孩习捷袍锯车好乞润劝汉必盆搁显卸缎所逢而刀毁扰屋离佳批妨奏</text>
	<text x="0" y="670">乐台纸便窄私译窃番垦厕赠警睛捐排财锤墨消董荒殊熔懂铜尝组羽坡裤咳纽困暮牢励锹摔唇芳嘴</text>
	<text x="0" y="705">船衬续泳温漫庆疤顶义众狡青鹅碗践渴责为惊揪骄冬絮秀停稿有叔散争虹燃贫你邻指拆截究杠刺</text>
	<text x="0" y="747">九康互次宵腿村滨葡弄芹遵呼传告妈伯奇翅改唱悠罪贵爬亏依循尖稍御脾殃督覆趴准垃帝睬垂糖</text>
	<text x="0" y="794">摄抬忠曲写舰分驳级胳晕歪径监回翁弓单利等捎休知漆季园粘欺割每贩枪恢肯八昌搏否岂欧钻源</text>
	<text x="0" y="825">肠券埋供君心额服验侧秒预场轰柴逃职杨铺王半书猎临款游向管底谦泪爸波做虽魔脏念症览盈飘</text>
	<text x="0" y="860">租试旨慕熊注宫栋碰夏清渐几卷震烂骗员案畏炭架裹瓶悼川到匪掠矮壶齐叛宜报岔肥皮解宰吧欠</text>
	<text x="0" y="893">六坟雕透硬跳纹鉴团破江贝民染匀灯蝇立束镇开虫僻舍惨限骤摸纪详此线降贱领丰饭颤锡承品撤</text>
	<text x="0" y="925">井胖竹兆嫂秤龄祝澡宙菌晶含备计仓掉氧应绒恩杜洽他踏甲申龙隶厦稳晓帮录响英俩惧锣借拳拾</text>
	<text x="0" y="971">今患导固退去爷逝用廊竿牺垮达紧售勿蓬么隆醉故躲缓宴插悔予多窑储乓舒古载东璃封药朵原操</text>
	<text x="0" y="1008">伍喘压臂鞭宁缘引渡难挑边疼凳仇脆寺巷脉罚漠唐别阳壁童攀吴起整浓弊饿膝狭傅提余近正花哪</text>
	<text x="0" y="1042">统年石败耽撑负雪内丛代白晨需形序卧侦夕删躁叉喜河叶傲称郑但毫默抛仍胁窗蜂叫夸纱妙意夺</text>
	<text x="0" y="1090">姻求闭脸蓄彻帘训堆惕遗窜毛怕伶城七愈归歌撞论士兴保址已晒叙张拴拜善价因纤烘贷判泽仗咸</text>
	<text x="0" y="1137">各塘床抖持苦魄绸谎击追扣踢眼秃亩牵盖骑跟图椅岭三废绳算概氏竭狼圾杀肃锋挖琴遍冤梦阔腐</text>
	<text x="0" y="1172">欢弱片歼姥棒蝶刘坏补刮官前吸膨洞火槽箩搜艘桥候夫涂贞委列里转巡敲朴凉献愤鲜渗革十闲脂</text>
	<text x="0" y="1203">绍市侨鄙剑远穴靠当及奥艳想鼠鹿耳失对酸析援毯桨怒鼻粗圆煎绢男任懒揉探珠弦阁涝柱国饶谣</text>
	<text x="0" y="1238">汁蹄征蜡烧法高燕实奉都跌划另脱卜祸狠喷快棋课沸掀昨剥挣饼亦抓库撇出腥绕泥疮烈疾烟胆裁</text>
	<text x="0" y="1283">色猪首鸽竖蚕悟霞陷扮化泻鸭溪秘以挺律走肤匆见俗芬骆作递蔬辨篮途听烤泰粥明趁洁让环诚弯</text>
	<text x="0" y="1317">寻趋超熟吵伪赔例感无突僚叹丽异斥捕绣煮迹启长水馆催帆费扎迷触技倡幅流目型驼慢斩榨填姑</text>
	<text x="0" y="1360">普菊怖华域俘夹册滩描乳腹带签蒸鸟闹嗽担央痛袖驰砖笼丙抹式沟扔庭良忧隙介兰宽牲星兽凭垄</text>
	<text x="0" y="1395">泼猾赛旬跨寇席挽债程老浆辉斤她姨眉辆躺从芽睁疗棍俯守干键下酷蹦奶据队终漏些障档妇参沙</text>
	<text x="0" y="1432">量捏亮尾肆滔扭顽彼巴逆名熄根丹拐哀悬滤吃检洪蝴球携役界甘誓钞削劣逼似奖锈帅婶在延社泊</text>
	<text x="0" y="1466">蔑班屑猜怀驶锻葬画若救愁凤抄换没易残侍羡诊衣杂富规肚币本零兼闸掏轻蚁拿野请手枝信堂榆</text>
	<text x="0" y="1514">姿避医蛇农话倚巩棚建涛浙矛冻嗓剧唯竞峰冰蜜炸喊徐夜瓦桂不蠢柜浴凶笛考押某倦助仁惑坦该</text>
	<text x="0" y="1547">练常孟饺施劳辱治术洒浊窝风勉孝浮猴蛙说宏骨午凯怠遣行莫湿满评板胡奔寨煌潜弟言趣允穗丢</text>
	<text x="0" y="1592">丁桶梳尿付恼罐厚商叮娘傻院须跑爆颈较丈稼骡收局质牛诸银过教挥殿差误蒙诞盾辟甚屠恶移匹</text>
	<text x="0" y="1635">左象株港扛县摩营蹈柳恰弹除京取慎养育木扇殖畜还钓旅谜亡麦尤货挡衔贼矩徒帽抗项粪遮落攻</text>
	<text x="0" y="1666">哥瞧蛾隐宪菠乃恳爹牌却凝忌度廉谈举跪忙虾索钩灶凑剩鞋右思穿然腰系秋体漂扩悦喉炼顿处衫</text>
	<text x="0" y="1705">宣新毅挎恋蛮耀马研枣证识工豪睡策省投秆息土沿器亿核采灰初阵健袄膏疑悲尊煤哲罢编咐惰来</text>
	<text x="0" y="1748">劫母贤横怨咬俭反晌岩春肉视哑装侄臭吗梯镰捞怜括柄的诱锁锅区渠角坚津竟偷孙爱病虚惯池雀</text>
	<text x="0" y="1797">绑可蜘呜势庸锐烦偏低努摊啦液掌灵串香伞皱梁腊搅植足躬佛拦仿贡雨卡喇茫之子啊节热沃柿会</text>
	<text x="0" y="1837">抽堵箭淹颜锄和醋桃静森秧围重剂卖鬼辽牧握薯脚待杯关飞辅税学宝情防拉安活咏樱生瓜荡惜很</text>
	<text x="0" y="1873">裳偿妄进梨贴苏头疫歉踪充确铲蓝尚绝椒链博墓全展闯第尸婆师坛糠阀害惠貌蛋什赖慨钥讯背司</text>
	<text x="0" y="1914">纠伐德武伴芒刃越咽疏筹茧州汽使荣贪垒滋随急摆灿政幻切娃坝疆眨资件即乎纺值觉瞒帐昆厘汇</text>
	<text x="0" y="1961">微伤释饥赌笨肿颂禽控合沾阻玩米极绩鹰唉材陵蚀仔油拼溉福美匠炉阿您侮衡姐筛网命虑始恨羊</text>
	<text x="0" y="1998">赚悄状兵混记志崇悉堤经登推族柔厨金烛峡陡辩测映成矿拒盟套置泉偶寒燥受字样抢哗绪斗层藏</text>
	<text x="0" y="2031">深湾比闻翠轧轨扫般壤娇妹厂挨巾四身赤菜屿呆俊乖磨粱选更句呈宗笔傍缩晴狸瞎糊荐只溜敬呀</text>
	<text x="0" y="2075">闷艇橘耍滴雅能纯久刚纷盲胸砌彩玉激天顾友齿浩期晋诗迟演忘忍橡茂搂点淡膊召电陶忆数荷铁</text>
	<text x="0" y="2111">毕罩扶萍强格李未构涨茎乔轮间亲示粒放抱扁袋存折杆语死招素缝方剖问兔股事惩销音协铃文着</text>
	<text x="0" y="2161">猛肾入旋叼射壳醒粮舌遥险筑智同杏距斜芝这呢皇叠昏观朝雹才罗猫纲既喝亭乡犯摧阴碍钢盗估</text>
	<text x="0" y="2200">松林力织翻霉佩伏周勾机月拔炎苍蚊亚维码隔桑黎葵雾景勤萌匙均卫辰党禁聋至克钳旁驴饲枕碑</text>
	<text x="0" y="2236">滚丘娱巧南造错气紫树房读露眠标聪总酿栗怪威婚梅元伟滥舅群磁冈刊了段餐止谷由渔犹创晚绿</text>
	<text x="0" y="2267">配械扒惹珍眯且精衰涉与模鲁仙旷被脖逮帖摇致斑吊锦炮陆要邀妖益厉议现羞蜓门戚郎属痰盘痕</text>
	<text x="0" y="2302">又史恭讽乙哨愉骂虏庄剃修塑动态地擦表企完黄炊通得我危肩胀公赞伙沉犁霸筝轿仆麻直讨湖脊</text>
	<text x="0" y="2341">北鸡浸种迫肌产页孕犬糕捉迁撕业芦味况陈垫阅囊述继座刷站馅吩碌位蛛恒馋趟甩黑块甜愿酱肝</text>
	<text x="0" y="2382">勒具遇昼草扬酬妥耕最容百棵票结榜污疯真笋宾</text>
</svg>