
<?xml version="1.0" encoding="UTF-8" standalone="no"?>
<!DOCTYPE svg PUBLIC "-//W3C//DTD SVG 1.1//EN" "http://www.w3.org/Graphics/SVG/1.1/DTD/svg11.dtd">
<svg xmlns="http://www.w3.org/2000/svg" version="1.1" xmlns:xlink="http://www.w3.org/1999/xlink" width="650px" height="3030.0px">
<style>text {font-family:PingFangSC-Regular, Microsoft YaHei, 'Hiragino Sans GB', Helvetica; ;font-size:14px;fill:#333;}</style>
	<text x="0" y="34">牵绘底命模苏慎兽巧延存舒花手校朗陡娘胖剪侄偶剖岔欲尘暴繁献隶袜徒抛纤男剑拾琴奋羞穗叹</text>
	<text x="0" y="66">烤雄素哄坟叔绞桐群悲缎忠棒磁预崭楼姻萍炉皱每听力俘泡妹雹呢项市鼓秃皆塔仇笨芹免退脚狗</text>
	<text x="0" y="103">造索句帜洒徐忍纯挺凡样宁忆耗财钩贺昏袋页牙铜找伴起士誓吼远良撤住向照袄污旁败钳悔济歉</text>
	<text x="0" y="149">取湾追难菌寇基塘例级滩煤乓属挪聚食遭昆升汉姨饼唉莲拣聋羊驰故零旺官恼析串航爬践遵幅哭</text>
	<text x="0" y="189">复帝绍许患妙鹿万石棚债馆符框骄即柜扰谅迎柴书领屯馋倾仪妻乃吓叉匪葱沈但纹仅纵广赔浩剃</text>
	<text x="0" y="233">害遇缘险凤端全珠选矩桌院报辉射豪么裂杏佛烦忌继腹常宝似龄挎淋施御棍螺翠波隙予票册跨轻</text>
	<text x="0" y="270">坏毛州吹轿鹅帮彩冲锄拐穿帆眯罚自症连室富从立拌呆赶涨不桶肾刮社掠封情渐床伙抹罢片先晒</text>
	<text x="0" y="301">颈辩传唱却令逮胸庸蓬犁挤迟柿创粪壤评俩梳垒铅罩丑肩妈说录愚态毅蹲吉未逃晕记净型冰斧漂</text>
	<text x="0" y="334">舞姿闷掘什填遗沟族牛灶兵被困怕高硬娱问中物月合目捏央格岗术毕溜赛冤限碍替衬幸诸咸销陶</text>
	<text x="0" y="366">啊亲菊薪绝疼侦露瑞泥伐缺福锋载踢袖店扫也摸已土淘竭球上镰坡户蓄牢煮你舟房带狱珍或朴锅</text>
	<text x="0" y="407">抚吧赞锈谱晚谁稠爸务惯孟宪麻邪驱草勿膊制籍结刻旅剧越道镜躲阻嚷痒屡须仁弦色惑城足概陪</text>
	<text x="0" y="450">斑需讨示雁撞演重驻扔健地业筝用叮应联谊插抵所腊蜘走史竹诉峰紧洗习麦右伪价蠢就防冶赏团</text>
	<text x="0" y="491">约蒸试吸饿锹捎哨择辜顽锣灯婚障云省炊夕渡愤慌忧倡可饰匹雾发狐龙劳犹搂见贫盗补秒并俭萌</text>
	<text x="0" y="533">隐际材扑友廊吐婶柏仰瓶杂杆场蔑删浸砖柳苦加斜跟朋燕乔迹诞烫榆现微妖苗摩龟赵作斤想森糖</text>
	<text x="0" y="574">究付狠侵各饲决芬差祥浊秧陷奏怪抢股捡葡勤核乒榨枣堡押吨宋棋酸边肤蹄降额询雪虏潮任膜他</text>
	<text x="0" y="613">活版播是庭敞毙缝搏政秤染慨匙极谎灰残皮章厅厚为茫叶林抖傅扁埋瘦此浮迫奖猾家春栏摊弊舍</text>
	<text x="0" y="653">晋位般式槐竟骑液悄魂摔翁东千浪扶艇横歌奔抱沿绣沾吴装蚕慰危歪疫随恋璃酒激伏艺超跃汽镇</text>
	<text x="0" y="694">秩疗描盯辆粥那扮请愿跪恢绳废贯离搜事因扎子税湖棉度译扯怒宫址坛线滚仗勉慧长浇疮于灾唐</text>
	<text x="0" y="733">津迁快蜻蔽峡挣称测移养岁尝膝殃至耕扩刷挖痕范霉普写僻虚雅生吊卵俊后涝而鉴附局兆赠享热</text>
	<text x="0" y="766">图闹葬偏敌酱夸糕二铺屈揭诗刀化窑顷器凯裙荡炮刊殊控艳爹突临们累讯谋扒守午阿碧绩品垂脏</text>
	<text x="0" y="801">交宇味慕忘系购疑币意乌棵田本谣伸儿捐席蛾七损恳贪多绑吞疏畜洞告依顾静罐趁钓还姑义辅短</text>
	<text x="0" y="839">壁操点蓝药毯缠能苹针哑餐蜜戒拥治参曲使才赴慢其挠忽躁拔猴字薄榜座号肆某佩性齿陵狂议宾</text>
	<text x="0" y="875">泻展循拿疤欣隆统冒招拳瓜盆邮班劲伯催尿居趴旱环完序刘堆如巨筑费衣幕洽恰南轮盼画朽嘉太</text>
	<text x="0" y="915">怠泉第世拨护卡钱尖纷冻通平款械嫌挡异斗础借推斥独钞樱颠的估日誉几赢冷视运确猛效金杜谨</text>
	<text x="0" y="958">疾另新颜劝踩傍鸟杨率熄余登筹思舱絮获喉换条江尾萝圣盐教努美圆柄买叠数大监映强客筐亦廉</text>
	<text x="0" y="993">粗培庆诵然农卫外偿员何嘱民忙备咽桃严货当阀甲汇辽休怀死缓疆顿姓两益睛崖盛且街压营承肢</text>
	<text x="0" y="1024">古卧役在觉代凶岂没惭终源沉名梨争漠屑要匀港孙康薯野签腔布茶召帽芦碌迷鸽炼垄码池懒读医</text>
	<text x="0" y="1060">窗愧饥爆十骆往单肥株眠论涉谷仿北凭筋蜓孔靠归兼敬稿盘卖辞根戚固识育委辰脂值笛桥辟副脆</text>
	<text x="0" y="1092">冈墙栗尊侍贿蹈撑秘资淹纠锡同顶坚牌蚊浴鸣恒络毫嚼克削粒距绪昂磨箭衡打姥来之谈案料误凑</text>
	<text x="0" y="1126">诚前洋检涌界壶略殿魔绢戏汪挨愉沙块更俗湿散否庄朱爷止迅师猜添六征券华策膀学天允执倘拒</text>
	<text x="0" y="1163">鲁碰职勾怖泼晶朝府爪释舌闪吃哲欧截量信邻祸亡失牲台紫着秀京威处集咬脉钥寸芝歇烟动据鞭</text>
	<text x="0" y="1202">铃慈俯去柱出授链乐轧让悠巴傻惜葛商优责奶寄答以一李王虾闲割由漏驾臣亩滤纲板哀欢清辣杀</text>
	<text x="0" y="1250">电达及密脱支暮虑内蚀整声寺恨斩缴返刚包接宣稀亭马浙捷贤奥讲惩够狡纸篇摇堂侮肺互认部醉</text>
	<text x="0" y="1298">供旷汗陆冬历甚飘腥伞档乡轨兰咏仆袍质训境枯伍对齐喜井盖炭倒搞少回摄将缸扭霜巾裁羡滑肉</text>
	<text x="0" y="1336">扇放乖挂神搅计卜迈响逆层洲编象等辈调醒杠束况翅机段末厉尼娃彼隔躬昨纺鹊指童帖葵触玻落</text>
	<text x="0" y="1374">巷丧睬山糟阔肿建鞋鱼岭则荣猎赚均玉舰顺罪滋垫吗灌冠氧悦欺燃亮哪愁疯减悟尺烛她貌炕充欠</text>
	<text x="0" y="1419">悼最揪愈寨芒会妇啦踪揉研蕉挽潜趋滥贞周宗访乙帘停喂抄届妄拉盏功戴间牺理驳虹筒蛮掏显滔</text>
	<text x="0" y="1459">正敏郎灵腾准桨囊观仙膏好秋特茂有河洁黑妥锁我睡蝴开荒九步衫持悬角滴脾拍切望艘弱泄旨做</text>
	<text x="0" y="1495">锻丸胀景沸乞烧虎程输课晨莫到捆驼眼碎励亚屿融急饱总闸丰唤艰梁渗言丁奉塞油杰谦旧霞协笼</text>
	<text x="0" y="1543">恭寻乏勇永笋窃坦颂尤人引八碗嗓蒙具俱夺次倍殖瓣矛橡狸匆件笔海驶茎相逝枕趟划鲜蛋避百语</text>
	<text x="0" y="1577">站话智嫩父进与狮绿既昌弓份革贝跳三变头国捉实沃粘贼裹堵窝劣柔甘形网泛满跑企郑绵恩断阵</text>
	<text x="0" y="1615">关惠崇喊枪影促错尚堪醋简臭软岸辫派米旗厌浅巩纱饶笑佣震晌吵振母举违盒述修候毒煌宰凳椒</text>
	<text x="0" y="1649">棕捕澡锦老蝶畏雷摧别背溪年厦僚英伶时仍入租孤稻弃川仔夏明丈翻阅私您瓦馅船娇泊探芳颤梅</text>
	<text x="0" y="1693">若直介星遍歼渣含妨熟都孩抽竖近嘴禾浓验篮涂绸暂勒楚惹拆弄袭坑邀剩捞茄蛛门咐搁流警箩套</text>
	<text x="0" y="1725">雨卷逼槽掩夜兄裤改势呜衔脊罗宏塑舅待遣该铲庙屋无闭破孕脑体武挑暖助恶诊胆咱渴馒抬锯绕</text>
	<text x="0" y="1764">闯穷杯掀拼刑鼻游乳鸭行幼黎组胳皂鞠寿路眨些泰伟胞雕办趣鬼贴茧列攀岩丙详练蹦钉猫遥叨身</text>
	<text x="0" y="1805">董竞坝惊悉丘穴捧黄采五保钢众拜腐盈径方稳蛇勺启只温受泳音树厂墓肯审弯宅脸始哥知寒阁桑</text>
	<text x="0" y="1847">个除暑漆库储它礼白汤橘产皇斯藏榴专燥利幻禽主击乘叙饭握速共肌火漫犯骂分孝虫汁矮姐标必</text>
	<text x="0" y="1891">帅衰魄撒稼赤扛垃贱讽科博姜下蜂熊雀敲砍侨椅拘钻丛番订祖安谜丝攻拴宙占原厘初劈阴像弟奴</text>
	<text x="0" y="1940">粱鹰帐里骨张题呈伤丹鸦怎剂督烘西垮四阶喷墨裕耀君骡售暗乱容酷乎又宽提菠耻狭轰蛙韵扬党</text>
	<text x="0" y="1985">垦宜种碑光膨圾搭粉搬巡左矿投香战括尸注秆纽痛糊今敢颗爽节按玩呼经昼婆解瞎嗽惰梢梦虽送</text>
	<text x="0" y="2018">把果文饮词牧青亿浑红窜折晓适反咳证低胜援偷逐织赌厕非贩亏诱陕嫁侧面德卸村感续毁懂算掌</text>
	<text x="0" y="2060">盾精炸炎求己瞧筛辱细植心希工疲易仓丽倦季膛惧致军岛泪焰辛肠兔羽服谢傲惕苍畅唇宵菜夫贷</text>
	<text x="0" y="2096">肝剥定状泽扣梯胁厨壮抗骗粮饺负转肚焦松披聪规判臂病禁坐担裳窄烂递溉痰栋抓叫宿逗曾淡奇</text>
	<text x="0" y="2134">念腰公考察积匠甜绒睁晴萄涛键风荐塌女贡权呀导吩蔬队携贵旦批园深壳真跌弹渠成盲骤丢桂过</text>
	<text x="0" y="2171">设置喘豆铸法怨眉锤耳给夹域闻旋遮甩元鄙途叛蚂酿逢耽哈唯了期倚胡双佳盟砌躺浆久彻哗堤消</text>
	<text x="0" y="2217">兴挥纳著申僵构栽宴很烈排奸掉旬车混刃志爱芽茅比枝飞默表驴朵犬这口木劫胃翼鸡便郊拖缩技</text>
	<text x="0" y="2252">擦典和小洪啄怜律润踏叼善收鼠摆辨维钟托灭胶圈瞒围酬猪蝇喝蒜阳氏蜡贸喇得水耐首县滨狼煎</text>
	<text x="0" y="2288">拢嫂类架假气脖覆霸铁半司配银拦赖血者摘凉箱惨渔透屠腿恐祝刺救荷蚁凝增息坊撕锐陈灿看纪</text>
	<text x="0" y="2322">尽稍竿管耍晃沫空干炒览熔再早较糠肃区留撇查</text>
</svg>