
<?xml version="1.0" encoding="UTF-8" standalone="no"?>
<!DOCTYPE svg PUBLIC "-//W3C//DTD SVG 1.1//EN" "http://www.w3.org/Graphics/SVG/1.1/DTD/svg11.dtd">
<svg xmlns="http://www.w3.org/2000/svg" version="1.1" xmlns:xlink="http://www.w3.org/1999/xlink" width="650px" height="3030.0px">
<style>text {font-family:PingFangSC-Regular, Microsoft YaHei, 'Hiragino Sans GB', Helvetica; ;font-size:14px;fill:#333;}</style>
	<text x="0" y="46">杂草尾党常吼劈直弃写呢贼煌件纳巴务磨结闭屯劫钓猴免残皆巡鸽矮刃绣合刻罚欢哗孩渐版龟蛮</text>
	<text x="0" y="80">杰夏嗽撇烟询骄剩画狂躲案狼雹猫看坟滋烫的枣彻韵疯赖并岂叮丛冻蚂碌帅庄掀疾诵泻犁蚁敬还</text>
	<text x="0" y="128">视塔方帘软羽际惊元遇倾先辰速闸童橡浙妨倦傲降凤离糠粗凝乞掌顶友透救引态真昏仆斑包国弄</text>
	<text x="0" y="173">向跌停士西划弟肆板浓医很液心捷明师钳恨全桶灶排泽畅诊货刀史男耀曾倍猎珠辅脸慕品摊串廉</text>
	<text x="0" y="205">田掉差日去可滨端来瘦独均乳跃阔详在谷说父揭驻洪异容月警危靠修然各增度裤兵氏惠圾勤词秩</text>
	<text x="0" y="255">况枯磁翁赔庙换饿水欲僻迫征回扎腿午腐性豪腔呼式废动符事炎土棵我阿选涉殿鼓旅恼蠢他饰穿</text>
	<text x="0" y="290">厦刷准泊劝迷扁议啊基娃册仙喝食砍熟舱否盒惭地绘温陆庸越业怀镇兼衡卖拘牧念虫弯吵践亮笋</text>
	<text x="0" y="333">保进歼飞感令肥乘烘病惨榨闻烈粉泰艳归促省建配梅迅翻害谁默株壁雅借蹈没桑辉语傍试监撤袋</text>
	<text x="0" y="368">芳吞诸末菊桂苹百币枕赶永拾仅赌香灰疆顿息宗供放费网避咬你都摩您歌洞话楚肯芝撒淘蔬馒晚</text>
	<text x="0" y="406">斥涝静约管荡絮织航鹰贩牌终诞机谨栽挖匀祝鲜指搂虑蛾嚼霜铃规盛员屿认屈败充哭铺恋械患内</text>
	<text x="0" y="446">眠球冈泄躺唇匠垄支阵题赞稼芹斯多迟惑催爽锤窗逗着理伸迎卷屑买角黑陈什锡栋美铁舅鞠汪次</text>
	<text x="0" y="484">捏沟辛片乌疮录层愤备芽补奸缴抽臣僚受又朽序牵厅忙逐校孝哄傅上偏万相袖坡戒馅缝崖茶膜型</text>
	<text x="0" y="515">黄们果趟武宣寻绍招今困恩穷轮部裹翠搬塑铜长绸洁兄腰绑迁琴珍喊惩悲殊封舌垃耐扰括忍隔驼</text>
	<text x="0" y="554">陵禁蔽菠目洒攻肤证梯世像范船蒙里死遍趋侦凡博萌夺雀挤伞则细浩了盟陕仍虎尤昂优董爸伶依</text>
	<text x="0" y="589">虚辜私击奔沈企莫待昨稠锹寨剖塞刊享亡便达油辨奏唤立艇喉赠撑榆壤舰裂恰拒善覆朴娱敞咸已</text>
	<text x="0" y="628">禽超研扶值阅盐个昆城仗亲追雄惯组纯狸左蝇展植至莲烂恢杆仓滔尝茄键狱臂晨闲掏泉烤蜻道发</text>
	<text x="0" y="678">拌雕载贝嫂树挪路花须冰纹浅海堆属听后队裙响绳膊刘德艺爷毅慨朋棋苦弱象凑抱宴虏谜糖阶牺</text>
	<text x="0" y="717">掠锦矩盲孙由别沙双岩混惹标难秆咐虽惧或松也纲颂清旗斤究刑阀锁聚置京继捡颠胶辣干砌矛寇</text>
	<text x="0" y="752">效吊暂其惜体是睬天壮幻涌把拿炮慎披自资厕场房底安牛亩梨纽开通改险筹活叉罩另悉抓嗓稍客</text>
	<text x="0" y="783">逝雨振湖叛腹广数跑霞鸡娘屋租抛绒涛塘赏架户泥呜怕吗摇它高争往埋拼虹毫毕熊眉炼贤宫纠庆</text>
	<text x="0" y="832">功惕与藏王嫁聪舍脆矿会例假堡馆踩籍拐姨述勺翼倘挂宁曲孟签色痛猛剪帖扬调大扔台缺礼宝众</text>
	<text x="0" y="876">荐箭译钱孤示误愈审控苍璃丧揉抵忠拍许升光墙甜薄咳锣框寿掩袄秒力授椒更养乖捆脂鱼云乱旋</text>
	<text x="0" y="915">爹彼昌贸号落颜肃港宏驳夸鉴经撕挎累套填文波吨素摘猜低身愚托这销灭带逼诱计帽魄俗姓气决</text>
	<text x="0" y="954">肌格含卧每叨脉桃丹隙蹄瞒宪核傻芒参谣打橘栗欠突辱硬扇盼思让鲁摔算怜起炕焦空坛润群饱盖</text>
	<text x="0" y="988">拥宇吓努河量寸俯烦复解胜汽奖胳鹊寒蕉拉乃槐饥狗李桐窄报床匹慰前链饼策沫典竞竭三一冒丈</text>
	<text x="0" y="1037">圣呀味垮红距造擦奴茎钉谢赵脊访注讨卵散圈科捧扑治咱钢锋啄首恐援购当颗加初哲产歪舟晓宾</text>
	<text x="0" y="1087">取谦奇幼苏按秤竖司举边折乔垒及隐布喂周陶奋甲站蓬砖麻炒灵批存威木尺携撞仿照才剃久影坦</text>
	<text x="0" y="1121">所侧股唯专勒拜够具疑斩张诉吸龙歇设局陪瑞缘浴疲轨笑融辞罗宜碗判斜正命倚炊羞质箱岛者晋</text>
	<text x="0" y="1163">座拆貌渔欣等订精盯犯店悦碑晕露溜蒜狠庭门浮茫敌额华尚湾知骡酷承睛适宵睡连嫌山玻且居丰</text>
	<text x="0" y="1206">代工酱母贡智采径拢牙压捕吉召短乙浸戚袭绕余虾吩伙伏节巷随启柳溉根逮少渗辩冠分棒职君鸟</text>
	<text x="0" y="1247">吧稿涂伍胸提药简胀族柏伤樱芦宰谎骨怠势宿圆新她贴滥联强沾鬼冷痕竟忆邪闯储于逃呆扮勿浪</text>
	<text x="0" y="1284">汉悟灯辽晴中览肩续四仰刚款闪纸书盘玩忌驶坝滑止遵凳阁肉狐挨收革婚蓝讽梢俭考狡瞧懂搞野</text>
	<text x="0" y="1316">腥择狮删猪字本重糟菜到执盈演晌营堪蚕戴跳愿彩喘望净集搭蝴唱描平葬期拦沉握柔旨兽厘潮钥</text>
	<text x="0" y="1361">形恒七既雾缎练读毒何非渣持积闷运历壶筑哑浊峡粱住煤从商畏领有熔楼竿始澡戏份系粥颈姿耗</text>
	<text x="0" y="1395">帝拳勾帜殃斧搜石妈想名秃块只迹症膨尼九卜吹送鸦坐占忧辟衣瓣吴人邻恳表漂星炸挑荷课袜屡</text>
	<text x="0" y="1440">巩甩院耽厨井减蚀舞衰锄仁信杨挥逆检帐委页齿匪扒互怎牢钞垂遮雪麦获劣震比洲捎旬跟牲粮泼</text>
	<text x="0" y="1482">叼糊俱背途驴萝谋川唉头杀状幅稳培除价现杏邀芬沿总肚著顽薯驱梦要拨纷肾鸣概蛇叫凯飘禾兴</text>
	<text x="0" y="1527">胁热限寄任旦摸亭同艘记侍以骆森确坊冬叔袍些映育梳尿煎第滚喇普羡衫针问闹朝踏秧崇暖拣辈</text>
	<text x="0" y="1570">赢棍笼汤足膀岭定劳朵慢绿损县酒走裁关漏皮隆漠乎临疼跨春垫贯激粒辆踪二么螺稀脖趴割金搏</text>
	<text x="0" y="1618">顷米伯钟趁坑答老拔昼姻偷电岁灾胆遥柄兰灿步筐乏儿渠济慌孔碧押得鄙为鸭抄段物抹叠源唐遭</text>
	<text x="0" y="1655">锅最整屠贞原剑纺称醋剧窝耻誓东战拖肝堵那祖派呈甚讲几街躁蛛好料佛能泡菌怖蹦辫暑罪协乡</text>
	<text x="0" y="1702">醉坏使毯极蒸妇搁寺滴仔错柱防弹八桥银州篮哀饲丢良成厉溪子器贫污罐槽无瞎挣伪而悼青胡验</text>
	<text x="0" y="1739">操巾该佩泛葵点项染茅十淋爬妄敢级泪播祸办揪哈扣迈桌哥脚碍境瓶眼束锻截零农界南票朗输箩</text>
	<text x="0" y="1782">趣骗骤燕探秋津北求捐霉醒守碎姑绢鼠严手栏铸神疗酬纪皂乐姜番馋丝技龄扯脾郊眯厂若址抬毁</text>
	<text x="0" y="1829">窜侮术太财学扛服悔铅沸密此变耕被递骑爆脏用介鞭入御卡景匆克摄孕轰侨贷倡繁叙嫩熄康吐奉</text>
	<text x="0" y="1869">略弊盏政似筛慧反隶疫抚挠煮愉乒类伟程茧据凉付赴税勉线础膏勇纤肠顺炉横处快夜紧腊消过甘</text>
	<text x="0" y="1912">行梁推贿替位齐耍火易近雷登蜂蛋黎言妙丽般潜犹洋衔下之慈白镜杯洽娇实古饶嘱怒英施疤导化</text>
	<text x="0" y="1948">狭微欺搅皇姐惰窃筋旁再烧茂徐间漆缓痰翅乓论杠央血样冤巧找循阻秘榴季剂声脱给毙负村失锐</text>
	<text x="0" y="1983">暗络幸淹尊夹湿妹句轧投墓评妻笨因骂舒盆应扭助汁摆猾畜葱裕域缸围宽鹅挽蜘察六凭破延燥故</text>
	<text x="0" y="2032">宅训谈涨届哪半列殖允伐囊霸接岸移返章益咽陡毛亚岗锯蜓忽深兆郎马觉厌燃售弦两公违鹿聋做</text>
	<text x="0" y="2074">垦嘴匙幕析胞贵市阴需池欧肿义夫碰转志笔浑侵篇跪扫驾轻滩妖耳敲冶制装早踢崭糕萍顾意壳满</text>
	<text x="0" y="2115">督渡贪椅创抢图轿哨徒副陷侄姥浇和候共诗暴脑苗席紫摧富未氧予柿柜单痒拴魔切巨浆钻测渴蝶</text>
	<text x="0" y="2163">尸廊誉车悠饺竹绝墨棕面皱忘权铲赚叹责励枪犬罢游致音主丑完役钩旷抖秀汗军仇锈林镰滤旺洗</text>
	<text x="0" y="2206">家添鞋库啦观码棉己丁遣奥编宙穗怨肺绵晒债薪榜就卫右穴爱焰攀情年障捉夕瓜谱葡纱丙俘佣识</text>
	<text x="0" y="2248">谅希不卸妥亏生券赛喜传削偶口遗劲特环玉沃躬塌眨统笛咏泳团构柴捞岔江仪敏俩剥雁谊帆利饮</text>
	<text x="0" y="2296">佳怪射盗但作膝瓦亿筝祥葛见插条流亦诚炭府厚时固汇婆率俊福睁贺腾民棚悄胖晃尘教酿丘尽缩</text>
	<text x="0" y="2327">悬兔千五艰嘉休缠丸蔑讯献窑刺嚷愁恶蓄掘枝维朱晶阳外倒风僵估胃将纵凶挺裳逢某堂爪社豆粪</text>
	<text x="0" y="2364">颤即灌抗如挡坚却绞蜡担材荒冲奶弓护留档习臭健必尖远扩桨淡女帮萄种出漫魂绪喷官区退小请</text>
	<text x="0" y="2414">荣峰懒告膛堤赤蹲断鼻绩模预驰室疏餐园宋婶贱斗律盾恭释查筒伴较法蛙交烛稻郑索显刮偿暮班</text>
	<text x="0" y="2461">羊对愧附饭杜粘触申酸急肢旧旱衬蚊蜜邮歉叶吃</text>
</svg>